<svg xmlns="http://www.w3.org/2000/svg"  viewBox="0 0 50 50" width="24" height="24"><path d="M 24.90625 7 C 14.96875 7 6.90625 15.0625 6.90625 25 C 6.90625 34.9375 14.96875 43 24.90625 43 C 34.84375 43 42.90625 34.9375 42.90625 25 C 42.90625 15.0625 34.84375 7 24.90625 7 Z M 24.90625 9 C 33.765625 9 40.90625 16.140625 40.90625 25 C 40.90625 33.859375 33.765625 41 24.90625 41 C 16.046875 41 8.90625 33.859375 8.90625 25 C 8.90625 16.140625 16.046875 9 24.90625 9 Z M 24.5 16.5 C 24.398438 17.199219 24.207031 17.695313 23.90625 18.09375 C 23.605469 18.492188 23.210938 18.894531 22.8125 19.09375 C 22.3125 19.292969 21.8125 19.492188 21.3125 19.59375 C 20.710938 19.695313 20.195313 19.6875 19.59375 19.6875 L 19.59375 21.3125 L 24 21.3125 L 24 33.5 L 26 33.5 L 26 16.5 Z"/></svg>